<?xml version="1.0" standalone="no"?>
  <!DOCTYPE svg PUBLIC "-//W3C//DTD SVG 1.1//EN" "http://www.w3.org/Graphics/SVG/1.1/DTD/svg11.dtd" >
  <svg>
  <metadata>
  Created by font-carrier
  </metadata>
  <defs>
  <font id="Minecraft-Title-Cyrillic" horiz-adv-x="3520" vert-adv-y="3520" >
    <font-face
      
      font-family="Minecraft Title Cyrillic"
      
      font-weight="400"
      
      font-stretch="normal"
      
      units-per-em="1024"
      
      ascent="1344"
      
      descent="-128"
      
    />
      <missing-glyph />

      

      
      <glyph glyph-name="uni21" unicode="&#x21;" d="M64 64L64 320L320 320L320 64L64 64M64 448L64 1088L320 1088L320 448L64 448Z"  horiz-adv-x="384" vert-adv-y="1024"  />

      
      <glyph glyph-name="uni22" unicode="&#x22;" d="M64 832L64 1024L128 1024L128 832L64 832M192 832L192 1024L256 1024L256 832L192 832Z"  horiz-adv-x="320" vert-adv-y="1024"  />

      
      <glyph glyph-name="uni24" unicode="&#x24;" d="M640 320L640 448L576 448L576 320L640 320M448 704L448 832L384 832L384 704L448 704M448-64L448 64L64 64L64 320L448 320L448 448L64 448L64 1088L448 1088L448 1216L576 1216L576 1088L960 1088L960 832L576 832L576 704L960 704L960 64L576 64L576-64L448-64Z"  horiz-adv-x="1024" vert-adv-y="1024"  />

      
      <glyph glyph-name="uni25" unicode="&#x25;" d="M960 256L960 384L832 384L832 256L960 256M704 128L704 512L1088 512L1088 128L704 128M320 704L320 832L192 832L192 704L320 704M64 576L64 960L448 960L448 576L64 576M320 0L320 192L384 192L384 384L448 384L448 576L512 576L512 768L576 768L576 960L640 960L640 1152L832 1152L832 960L768 960L768 768L704 768L704 576L640 576L640 384L576 384L576 192L512 192L512 0L320 0Z"  horiz-adv-x="1152" vert-adv-y="1024"  />

      
      <glyph glyph-name="uni27" unicode="&#x27;" d="M64 832L64 1024L128 1024L128 832L64 832Z"  horiz-adv-x="192" vert-adv-y="1024"  />

      
      <glyph glyph-name="uni28" unicode="&#x28;" d="M192-128L192-64L128-64L128 0L64 0L64 1152L128 1152L128 1216L192 1216L192 1280L384 1280L384 1216L320 1216L320 1152L256 1152L256 0L320 0L320-64L384-64L384-128L192-128Z"  horiz-adv-x="448" vert-adv-y="1024"  />

      
      <glyph glyph-name="uni29" unicode="&#x29;" d="M64-128L64-64L128-64L128 0L192 0L192 1152L128 1152L128 1216L64 1216L64 1280L256 1280L256 1216L320 1216L320 1152L384 1152L384 0L320 0L320-64L256-64L256-128L64-128Z"  horiz-adv-x="448" vert-adv-y="1024"  />

      
      <glyph glyph-name="uni2a" unicode="&#x2a;" d="M512 384L512 576L448 576L448 640L576 640L576 768L448 768L448 640L320 640L320 768L192 768L192 640L320 640L320 576L256 576L256 384L320 384L320 448L448 448L448 384L512 384M128 320L128 832L640 832L640 320L128 320M672 288L672 864L96 864L96 288L672 288M64 256L64 896L704 896L704 256L64 256Z"  horiz-adv-x="768" vert-adv-y="1024"  />

      
      <glyph glyph-name="uni2b" unicode="&#x2b;" d="M192 384L192 512L64 512L64 640L192 640L192 768L320 768L320 640L448 640L448 512L320 512L320 384L192 384Z"  horiz-adv-x="512" vert-adv-y="1024"  />

      
      <glyph glyph-name="uni2c" unicode="&#x2c;" d="M128 0L128 64L64 64L64 192L192 192L192 0L128 0Z"  horiz-adv-x="256" vert-adv-y="1024"  />

      
      <glyph glyph-name="uni2d" unicode="&#x2d;" d="M64 512L64 640L448 640L448 512L64 512Z"  horiz-adv-x="512" vert-adv-y="1024"  />

      
      <glyph glyph-name="uni2e" unicode="&#x2e;" d="M64 64L64 192L192 192L192 64L64 64Z"  horiz-adv-x="256" vert-adv-y="1024"  />

      
      <glyph glyph-name="uni2f" unicode="&#x2f;" d="M64 0L64 192L128 192L128 384L192 384L192 576L256 576L256 768L320 768L320 960L384 960L384 1152L576 1152L576 960L512 960L512 768L448 768L448 576L384 576L384 384L320 384L320 192L256 192L256 0L64 0Z"  horiz-adv-x="640" vert-adv-y="1024"  />

      
      <glyph glyph-name="uni30" unicode="&#x30;" d="M576 320L576 576L512 576L512 640L576 640L576 832L448 832L448 576L512 576L512 512L448 512L448 320L576 320M64 64L64 1088L960 1088L960 64L64 64Z"  horiz-adv-x="1024" vert-adv-y="1024"  />

      
      <glyph glyph-name="uni31" unicode="&#x31;" d="M256 64L256 832L64 832L64 1088L576 1088L576 64L256 64Z"  horiz-adv-x="640" vert-adv-y="1024"  />

      
      <glyph glyph-name="uni32" unicode="&#x32;" d="M64 64L64 704L640 704L640 832L384 832L384 768L64 768L64 1088L960 1088L960 448L384 448L384 320L960 320L960 64L64 64Z"  horiz-adv-x="1024" vert-adv-y="1024"  />

      
      <glyph glyph-name="uni33" unicode="&#x33;" d="M64 64L64 384L384 384L384 320L640 320L640 448L384 448L384 704L640 704L640 832L384 832L384 768L64 768L64 1088L960 1088L960 64L64 64Z"  horiz-adv-x="1024" vert-adv-y="1024"  />

      
      <glyph glyph-name="uni34" unicode="&#x34;" d="M640 64L640 320L64 320L64 1088L384 1088L384 448L640 448L640 1088L960 1088L960 64L640 64Z"  horiz-adv-x="1024" vert-adv-y="1024"  />

      
      <glyph glyph-name="uni35" unicode="&#x35;" d="M64 64L64 384L384 384L384 320L640 320L640 448L64 448L64 1088L960 1088L960 832L384 832L384 704L960 704L960 64L64 64Z"  horiz-adv-x="1024" vert-adv-y="1024"  />

      
      <glyph glyph-name="uni36" unicode="&#x36;" d="M640 320L640 448L384 448L384 320L640 320M64 64L64 1088L960 1088L960 768L640 768L640 832L384 832L384 704L960 704L960 64L64 64Z"  horiz-adv-x="1024" vert-adv-y="1024"  />

      
      <glyph glyph-name="uni37" unicode="&#x37;" d="M384 64L384 704L640 704L640 832L384 832L384 768L64 768L64 1088L960 1088L960 576L640 576L640 64L384 64Z"  horiz-adv-x="1024" vert-adv-y="1024"  />

      
      <glyph glyph-name="uni38" unicode="&#x38;" d="M640 320L640 448L384 448L384 320L640 320M640 704L640 832L384 832L384 704L640 704M64 64L64 1088L960 1088L960 64L64 64Z"  horiz-adv-x="1024" vert-adv-y="1024"  />

      
      <glyph glyph-name="uni39" unicode="&#x39;" d="M640 704L640 832L384 832L384 704L640 704M64 64L64 384L384 384L384 320L640 320L640 448L64 448L64 1088L960 1088L960 64L64 64Z"  horiz-adv-x="1024" vert-adv-y="1024"  />

      
      <glyph glyph-name="uni3a" unicode="&#x3a;" d="M192 256L192 384L320 384L320 256L192 256M192 768L192 896L320 896L320 768L192 768Z"  horiz-adv-x="384" vert-adv-y="1024"  />

      
      <glyph glyph-name="uni3b" unicode="&#x3b;" d="M128 192L128 256L64 256L64 384L192 384L192 192L128 192M64 768L64 896L192 896L192 768L64 768Z"  horiz-adv-x="256" vert-adv-y="1024"  />

      
      <glyph glyph-name="uni3d" unicode="&#x3d;" d="M64 384L64 512L448 512L448 384L64 384M64 576L64 704L448 704L448 576L64 576Z"  horiz-adv-x="512" vert-adv-y="1024"  />

      
      <glyph glyph-name="uni3f" unicode="&#x3f;" d="M384 64L384 320L640 320L640 64L384 64M384 384L384 704L640 704L640 832L384 832L384 768L64 768L64 1088L960 1088L960 576L640 576L640 384L384 384Z"  horiz-adv-x="1024" vert-adv-y="1024"  />

      
      <glyph glyph-name="uni40" unicode="&#x40;" d="M576 256L576 448L512 448L512 512L640 512L640 640L512 640L512 512L384 512L384 640L256 640L256 512L384 512L384 448L320 448L320 256L384 256L384 320L512 320L512 256L576 256M64 64L64 832L832 832L832 192L192 192L192 704L704 704L704 256L768 256L768 768L128 768L128 128L896 128L896 64L64 64Z"  horiz-adv-x="960" vert-adv-y="1024"  />

      
      <glyph glyph-name="uni41" unicode="&#x41;" d="M576 64L576 320L736 320L768 288L960 288L960 64L576 64M640 448L640 640L576 640L576 704L704 704L704 832L576 832L576 704L448 704L448 832L320 832L320 704L448 704L448 640L384 640L384 448L448 448L448 512L576 512L576 448L640 448M64 64L64 1088L960 1088L960 320L736 320L704 352L576 352L576 384L448 384L448 64L320 64L288 128L256 64L64 64Z"  horiz-adv-x="1024" vert-adv-y="1024"  />

      
      <glyph glyph-name="uni42" unicode="&#x42;" d="M640 320L576 352L576 480L448 480L448 320L640 320M576 672L576 832L448 832L448 736L384 704L448 704L448 672L576 672M64 64L64 1088L960 1088L960 608L832 608L832 544L960 544L960 64L768 64L704 96L640 64L320 64L320 128L288 192L288 64L64 64Z"  horiz-adv-x="1024" vert-adv-y="1024"  />

      
      <glyph glyph-name="uni43" unicode="&#x43;" d="M64 64L64 512L128 512L64 544L64 1088L960 1088L960 832L384 832L384 736L256 736L192 704L384 704L384 320L960 320L960 64L832 64L800 128L800 64L320 64L256 96L192 64L64 64Z"  horiz-adv-x="1024" vert-adv-y="1024"  />

      
      <glyph glyph-name="uni44" unicode="&#x44;" d="M576 320L576 832L448 832L448 448L384 448L448 416L448 320L576 320M64 64L64 640L192 640L128 672L64 672L64 1088L896 1088L896 832L960 832L960 704L896 704L960 672L960 320L896 320L896 64L64 64Z"  horiz-adv-x="1024" vert-adv-y="1024"  />

      
      <glyph glyph-name="uni45" unicode="&#x45;" d="M64 64L64 256L192 256L192 64L64 64M704 64L704 192L768 192L768 320L960 320L960 64L704 64M224 64L224 288L64 288L64 704L256 704L192 736L64 736L64 1088L960 1088L960 832L384 832L384 704L640 704L640 576L672 512L672 704L960 704L960 448L384 448L384 320L736 320L736 224L672 224L672 64L224 64Z"  horiz-adv-x="1024" vert-adv-y="1024"  />

      
      <glyph glyph-name="uni46" unicode="&#x46;" d="M704 448L704 608L736 640L768 704L960 704L960 448L704 448M64 64L64 192L128 192L64 224L64 1088L960 1088L960 832L384 832L384 768L288 768L320 736L384 736L384 704L736 704L672 576L672 448L384 448L384 64L64 64Z"  horiz-adv-x="1024" vert-adv-y="1024"  />

      
      <glyph glyph-name="uni47" unicode="&#x47;" d="M64 64L64 384L288 384L320 352L448 352L448 320L704 320L704 448L576 448L576 576L960 576L960 64L672 64L640 128L608 64L64 64M64 832L64 1088L256 1088L256 832L64 832M288 384L256 416L64 416L64 800L288 800L288 1088L960 1088L960 864L896 832L960 832L960 640L704 640L704 832L448 832L448 384L288 384Z"  horiz-adv-x="1024" vert-adv-y="1024"  />

      
      <glyph glyph-name="uni48" unicode="&#x48;" d="M64 64L64 1088L448 1088L448 704L256 704L320 672L576 672L576 1088L960 1088L960 832L832 832L896 800L960 800L960 288L896 256L960 256L960 64L576 64L576 480L448 480L448 64L256 64L224 128L224 64L64 64Z"  horiz-adv-x="1024" vert-adv-y="1024"  />

      
      <glyph glyph-name="uni49" unicode="&#x49;" d="M64 64L64 1088L384 1088L384 832L256 832L320 800L384 800L384 64L192 64L160 128L160 64L64 64Z"  horiz-adv-x="448" vert-adv-y="1024"  />

      
      <glyph glyph-name="uni4a" unicode="&#x4a;" d="M64 64L64 320L256 320L256 576L320 576L256 608L256 1088L448 1088L448 960L480 896L480 1088L576 1088L576 64L512 64L480 128L480 64L64 64Z"  horiz-adv-x="640" vert-adv-y="1024"  />

      
      <glyph glyph-name="uni4b" unicode="&#x4b;" d="M64 64L64 288L224 288L224 448L448 448L448 64L64 64M576 64L576 512L448 512L448 480L192 480L192 320L64 320L64 1088L192 1088L224 1024L224 1088L448 1088L448 640L576 640L576 1088L960 1088L960 608L832 608L832 480L960 480L960 64L832 64L800 128L768 64L576 64Z"  horiz-adv-x="1024" vert-adv-y="1024"  />

      
      <glyph glyph-name="uni4c" unicode="&#x4c;" d="M64 64L64 640L256 640L192 672L64 672L64 1088L384 1088L384 352L320 320L704 320L704 192L736 128L736 320L960 320L960 64L64 64Z"  horiz-adv-x="1024" vert-adv-y="1024"  />

      
      <glyph glyph-name="uni4d" unicode="&#x4d;" d="M192 256L192 352L384 352L384 256L192 256M64 64L64 448L160 448L160 224L384 224L384 64L64 64M832 64L832 576L704 576L704 384L512 384L512 576L384 576L384 384L192 384L192 480L64 480L64 832L160 832L160 864L64 864L64 1088L384 1088L384 864L224 864L224 832L512 832L512 640L704 640L704 672L800 672L800 704L704 704L704 832L960 832L960 704L864 704L864 672L1152 672L1152 64L832 64M992 704L992 864L832 864L832 1088L1152 1088L1152 704L992 704Z"  horiz-adv-x="1216" vert-adv-y="1024"  />

      
      <glyph glyph-name="uni4e" unicode="&#x4e;" d="M64 64L64 352L384 352L384 64L192 64L160 128L160 64L64 64M640 64L640 352L832 352L832 64L640 64M864 64L864 384L512 384L512 576L384 576L384 384L64 384L64 1088L384 1088L384 864L320 864L256 832L512 832L512 640L640 640L640 832L704 832L768 800L960 800L960 64L864 64M768 832L704 864L640 864L640 1088L960 1088L960 832L768 832Z"  horiz-adv-x="1024" vert-adv-y="1024"  />

      
      <glyph glyph-name="uni4f" unicode="&#x4f;" d="M576 320L576 608L704 608L640 640L576 640L576 832L448 832L448 352L384 320L576 320M64 64L64 448L320 448L256 480L64 480L64 1088L960 1088L960 64L64 64Z"  horiz-adv-x="1024" vert-adv-y="1024"  />

      
      <glyph glyph-name="uni50" unicode="&#x50;" d="M480 512L480 672L576 672L576 832L448 832L448 576L480 512L480 512M64 64L64 224L192 224L128 256L64 256L64 1088L960 1088L960 448L896 448L864 512L864 448L448 448L448 64L64 64Z"  horiz-adv-x="1024" vert-adv-y="1024"  />

      
      <glyph glyph-name="uni51" unicode="&#x51;" d="M576 384L576 832L448 832L448 576L320 576L384 544L448 544L448 384L576 384M768 64L768 128L736 192L736 128L64 128L64 1088L800 1088L800 768L960 768L960 64L768 64M832 800L832 1088L960 1088L960 800L832 800Z"  horiz-adv-x="1024" vert-adv-y="1024"  />

      
      <glyph glyph-name="uni52" unicode="&#x52;" d="M160 64L192 128L192 320L448 320L448 64L160 64M576 672L576 832L448 832L448 672L576 672M64 832L64 1088L192 1088L224 1024L224 832L64 832M64 64L64 800L320 800L256 832L256 1024L224 1088L960 1088L960 640L768 640L768 608L704 576L960 576L960 64L768 64L736 128L736 64L576 64L576 256L704 256L640 288L576 288L576 448L448 448L448 352L160 352L160 128L128 64L64 64Z"  horiz-adv-x="1024" vert-adv-y="1024"  />

      
      <glyph glyph-name="uni53" unicode="&#x53;" d="M64 64L64 320L288 320L288 256L256 192L256 64L64 64M288 64L288 192L320 256L320 320L640 320L640 448L64 448L64 1088L960 1088L960 832L384 832L384 704L448 704L448 640L480 576L480 704L960 704L960 512L896 512L960 480L960 64L288 64Z"  horiz-adv-x="1024" vert-adv-y="1024"  />

      
      <glyph glyph-name="uni54" unicode="&#x54;" d="M320 64L320 288L512 288L544 320L704 320L704 64L320 64M320 320L320 832L288 832L288 896L256 832L64 832L64 1088L768 1088L768 960L736 896L736 832L704 832L704 352L576 352L544 320L320 320M768 832L768 960L800 1024L800 1088L960 1088L960 832L768 832Z"  horiz-adv-x="1024" vert-adv-y="1024"  />

      
      <glyph glyph-name="uni55" unicode="&#x55;" d="M64 64L64 288L192 288L128 320L64 320L64 1088L192 1088L192 1024L224 960L224 1088L448 1088L448 320L576 320L576 384L800 384L832 352L960 352L960 64L64 64M800 384L768 416L576 416L576 1088L960 1088L960 384L800 384Z"  horiz-adv-x="1024" vert-adv-y="1024"  />

      
      <glyph glyph-name="uni56" unicode="&#x56;" d="M64 800L64 1088L192 1088L192 800L64 800M320 64L320 320L192 320L192 448L64 448L64 768L224 768L224 1088L448 1088L448 448L576 448L576 576L704 576L640 608L576 608L576 1088L960 1088L960 448L832 448L832 320L704 320L704 64L320 64Z"  horiz-adv-x="1024" vert-adv-y="1024"  />

      
      <glyph glyph-name="uni57" unicode="&#x57;" d="M64 64L64 1088L192 1088L192 1024L224 960L224 1088L384 1088L384 576L512 576L512 768L704 768L704 576L1024 576L960 608L832 608L832 1088L1152 1088L1152 64L1056 64L1056 256L1024 288L960 288L1024 256L1024 64L832 64L832 320L704 320L704 512L512 512L512 320L384 320L384 288L256 288L192 256L384 256L384 64L64 64Z"  horiz-adv-x="1216" vert-adv-y="1024"  />

      
      <glyph glyph-name="uni58" unicode="&#x58;" d="M64 64L64 512L192 512L192 640L64 640L64 1088L448 1088L448 672L576 672L576 1088L960 1088L960 864L896 832L960 832L960 640L832 640L832 512L960 512L960 64L576 64L576 480L384 480L320 448L448 448L448 64L256 64L256 256L224 192L224 64L64 64Z"  horiz-adv-x="1024" vert-adv-y="1024"  />

      
      <glyph glyph-name="uni59" unicode="&#x59;" d="M320 64L320 512L192 512L192 640L64 640L64 1088L256 1088L288 1024L320 1088L448 1088L448 672L640 672L576 704L576 1088L960 1088L960 640L832 640L832 512L704 512L704 288L672 256L704 256L704 64L480 64L480 192L448 128L448 64L320 64Z"  horiz-adv-x="1024" vert-adv-y="1024"  />

      
      <glyph glyph-name="uni5a" unicode="&#x5a;" d="M64 64L64 320L256 320L256 64L64 64M288 64L288 352L64 352L64 704L608 704L608 512L576 448L384 448L384 320L960 320L960 64L288 64M608 448L640 512L640 640L608 704L640 704L640 832L64 832L64 1088L960 1088L960 672L896 672L832 640L960 640L960 448L608 448Z"  horiz-adv-x="1024" vert-adv-y="1024"  />

      
      <glyph glyph-name="uni5b" unicode="&#x5b;" d="M64-128L64 1280L384 1280L384 1152L256 1152L256 0L384 0L384-128L64-128Z"  horiz-adv-x="448" vert-adv-y="1024"  />

      
      <glyph glyph-name="uni5c" unicode="&#x5c;" d="M384 0L384 192L320 192L320 384L256 384L256 576L192 576L192 768L128 768L128 960L64 960L64 1152L256 1152L256 960L320 960L320 768L384 768L384 576L448 576L448 384L512 384L512 192L576 192L576 0L384 0Z"  horiz-adv-x="640" vert-adv-y="1024"  />

      
      <glyph glyph-name="uni5d" unicode="&#x5d;" d="M64-128L64 0L192 0L192 1152L64 1152L64 1280L384 1280L384-128L64-128Z"  horiz-adv-x="448" vert-adv-y="1024"  />

      
      <glyph glyph-name="uni5e" unicode="&#x5e;" d="M64 1024L64 1152L192 1152L192 1024L64 1024M320 1024L320 1152L448 1152L448 1024L320 1024M192 1152L192 1280L320 1280L320 1152L192 1152Z"  horiz-adv-x="512" vert-adv-y="1024"  />

      
      <glyph glyph-name="uni5f" unicode="&#x5f;" d="M64 64L64 128L320 128L320 64L64 64Z"  horiz-adv-x="384" vert-adv-y="1024"  />

      
      <glyph glyph-name="uni60" unicode="&#x60;" d="M128 832L128 896L64 896L64 1024L192 1024L192 960L256 960L256 832L128 832Z"  horiz-adv-x="320" vert-adv-y="1024"  />

      
      <glyph glyph-name="uni61" unicode="&#x61;" d="M640 448L640 640L576 640L576 704L704 704L704 832L576 832L576 704L448 704L448 832L320 832L320 704L448 704L448 640L384 640L384 448L448 448L448 512L576 512L576 448L640 448M64 64L64 1088L960 1088L960 64L576 64L576 384L448 384L448 64L64 64Z"  horiz-adv-x="1024" vert-adv-y="1024"  />

      
      <glyph glyph-name="uni62" unicode="&#x62;" d="M576 320L576 480L448 480L448 320L576 320M576 672L576 832L448 832L448 672L576 672M64 64L64 1088L960 1088L960 640L832 640L832 512L960 512L960 64L64 64Z"  horiz-adv-x="1024" vert-adv-y="1024"  />

      
      <glyph glyph-name="uni63" unicode="&#x63;" d="M64 64L64 1088L960 1088L960 832L384 832L384 320L960 320L960 64L64 64Z"  horiz-adv-x="1024" vert-adv-y="1024"  />

      
      <glyph glyph-name="uni64" unicode="&#x64;" d="M576 320L576 832L448 832L448 320L576 320M64 64L64 1088L896 1088L896 896L960 896L960 256L896 256L896 64L64 64Z"  horiz-adv-x="1024" vert-adv-y="1024"  />

      
      <glyph glyph-name="uni65" unicode="&#x65;" d="M64 64L64 1088L960 1088L960 832L384 832L384 704L960 704L960 448L384 448L384 320L960 320L960 64L64 64Z"  horiz-adv-x="1024" vert-adv-y="1024"  />

      
      <glyph glyph-name="uni66" unicode="&#x66;" d="M64 64L64 1088L960 1088L960 832L384 832L384 704L960 704L960 448L384 448L384 64L64 64Z"  horiz-adv-x="1024" vert-adv-y="1024"  />

      
      <glyph glyph-name="uni67" unicode="&#x67;" d="M64 64L64 1088L960 1088L960 640L576 640L576 832L448 832L448 320L704 320L704 384L576 384L576 576L960 576L960 64L64 64Z"  horiz-adv-x="1024" vert-adv-y="1024"  />

      
      <glyph glyph-name="uni68" unicode="&#x68;" d="M64 64L64 1088L448 1088L448 672L576 672L576 1088L960 1088L960 64L576 64L576 480L448 480L448 64L64 64Z"  horiz-adv-x="1024" vert-adv-y="1024"  />

      
      <glyph glyph-name="uni69" unicode="&#x69;" d="M64 64L64 1088L384 1088L384 64L64 64Z"  horiz-adv-x="448" vert-adv-y="1024"  />

      
      <glyph glyph-name="uni6a" unicode="&#x6a;" d="M64 64L64 320L256 320L256 1088L576 1088L576 64L64 64Z"  horiz-adv-x="640" vert-adv-y="1024"  />

      
      <glyph glyph-name="uni6b" unicode="&#x6b;" d="M64 64L64 1088L448 1088L448 640L576 640L576 1088L960 1088L960 640L832 640L832 448L960 448L960 64L576 64L576 512L448 512L448 64L64 64Z"  horiz-adv-x="1024" vert-adv-y="1024"  />

      
      <glyph glyph-name="uni6c" unicode="&#x6c;" d="M64 64L64 1088L384 1088L384 320L960 320L960 64L64 64Z"  horiz-adv-x="1024" vert-adv-y="1024"  />

      
      <glyph glyph-name="uni6d" unicode="&#x6d;" d="M64 64L64 1088L384 1088L384 832L512 832L512 640L704 640L704 832L832 832L832 1088L1152 1088L1152 64L832 64L832 576L704 576L704 384L512 384L512 576L384 576L384 64L64 64Z"  horiz-adv-x="1216" vert-adv-y="1024"  />

      
      <glyph glyph-name="uni6e" unicode="&#x6e;" d="M64 64L64 1088L384 1088L384 832L512 832L512 640L640 640L640 1088L960 1088L960 64L640 64L640 384L512 384L512 576L384 576L384 64L64 64Z"  horiz-adv-x="1024" vert-adv-y="1024"  />

      
      <glyph glyph-name="uni6f" unicode="&#x6f;" d="M576 320L576 832L448 832L448 320L576 320M64 64L64 1088L960 1088L960 64L64 64Z"  horiz-adv-x="1024" vert-adv-y="1024"  />

      
      <glyph glyph-name="uni70" unicode="&#x70;" d="M576 672L576 832L448 832L448 672L576 672M64 64L64 1088L960 1088L960 448L448 448L448 64L64 64Z"  horiz-adv-x="1024" vert-adv-y="1024"  />

      
      <glyph glyph-name="uni71" unicode="&#x71;" d="M576 384L576 832L448 832L448 384L576 384M768 64L768 128L64 128L64 1088L960 1088L960 64L768 64Z"  horiz-adv-x="1024" vert-adv-y="1024"  />

      
      <glyph glyph-name="uni72" unicode="&#x72;" d="M576 672L576 832L448 832L448 672L576 672M64 64L64 1088L960 1088L960 640L832 640L832 576L960 576L960 64L576 64L576 448L448 448L448 64L64 64Z"  horiz-adv-x="1024" vert-adv-y="1024"  />

      
      <glyph glyph-name="uni73" unicode="&#x73;" d="M64 64L64 320L640 320L640 448L64 448L64 1088L960 1088L960 832L384 832L384 704L960 704L960 64L64 64Z"  horiz-adv-x="1024" vert-adv-y="1024"  />

      
      <glyph glyph-name="uni74" unicode="&#x74;" d="M320 64L320 832L64 832L64 1088L960 1088L960 832L704 832L704 64L320 64Z"  horiz-adv-x="1024" vert-adv-y="1024"  />

      
      <glyph glyph-name="uni75" unicode="&#x75;" d="M64 64L64 1088L448 1088L448 320L576 320L576 1088L960 1088L960 64L64 64Z"  horiz-adv-x="1024" vert-adv-y="1024"  />

      
      <glyph glyph-name="uni76" unicode="&#x76;" d="M320 64L320 320L192 320L192 448L64 448L64 1088L448 1088L448 448L576 448L576 1088L960 1088L960 448L832 448L832 320L704 320L704 64L320 64Z"  horiz-adv-x="1024" vert-adv-y="1024"  />

      
      <glyph glyph-name="uni77" unicode="&#x77;" d="M64 64L64 1088L384 1088L384 576L512 576L512 768L704 768L704 576L832 576L832 1088L1152 1088L1152 64L832 64L832 320L704 320L704 512L512 512L512 320L384 320L384 64L64 64Z"  horiz-adv-x="1216" vert-adv-y="1024"  />

      
      <glyph glyph-name="uni78" unicode="&#x78;" d="M64 64L64 512L192 512L192 640L64 640L64 1088L448 1088L448 672L576 672L576 1088L960 1088L960 640L832 640L832 512L960 512L960 64L576 64L576 480L448 480L448 64L64 64Z"  horiz-adv-x="1024" vert-adv-y="1024"  />

      
      <glyph glyph-name="uni79" unicode="&#x79;" d="M320 64L320 512L192 512L192 640L64 640L64 1088L448 1088L448 672L576 672L576 1088L960 1088L960 640L832 640L832 512L704 512L704 64L320 64Z"  horiz-adv-x="1024" vert-adv-y="1024"  />

      
      <glyph glyph-name="uni7a" unicode="&#x7a;" d="M64 64L64 704L640 704L640 832L64 832L64 1088L960 1088L960 448L384 448L384 320L960 320L960 64L64 64Z"  horiz-adv-x="1024" vert-adv-y="1024"  />

      
      <glyph glyph-name="uni7b" unicode="&#x7b;" d="M192-128L192-64L128-64L128 0L64 0L64 512L0 512L0 640L64 640L64 1152L128 1152L128 1216L192 1216L192 1280L384 1280L384 1216L320 1216L320 1152L256 1152L256 640L192 640L192 512L256 512L256 0L320 0L320-64L384-64L384-128L192-128Z"  horiz-adv-x="448" vert-adv-y="1024"  />

      
      <glyph glyph-name="uni7c" unicode="&#x7c;" d="M64-128L64 1280L256 1280L256-128L64-128Z"  horiz-adv-x="320" vert-adv-y="1024"  />

      
      <glyph glyph-name="uni7d" unicode="&#x7d;" d="M64-128L64-64L128-64L128 0L192 0L192 512L256 512L256 640L192 640L192 1152L128 1152L128 1216L64 1216L64 1280L256 1280L256 1216L320 1216L320 1152L384 1152L384 640L448 640L448 512L384 512L384 0L320 0L320-64L256-64L256-128L64-128Z"  horiz-adv-x="512" vert-adv-y="1024"  />

      
      <glyph glyph-name="uni7e" unicode="&#x7e;" d="M448 448L448 512L320 512L320 576L192 576L192 512L64 512L64 640L192 640L192 704L320 704L320 640L448 640L448 576L576 576L576 640L704 640L704 512L576 512L576 448L448 448Z"  horiz-adv-x="768" vert-adv-y="1024"  />

      
      <glyph glyph-name="unia9" unicode="&#xa9;" d="M2624 64L2624 128L2688 128L2688 64L2624 64M1728 64L1728 192L1792 192L1792 64L1728 64M448 128L448 320L384 320L384 128L448 128M3136 128L3136 320L3072 320L3072 128L3136 128M64 64L64 384L256 384L256 320L128 320L128 256L192 256L192 192L128 192L128 64L64 64M320 64L320 384L512 384L512 64L320 64M576 64L576 384L640 384L640 320L672 320L672 256L640 256L640 64L576 64M704 64L704 192L672 192L672 256L704 256L704 384L768 384L768 64L704 64M896 64L896 320L832 320L832 384L1024 384L1024 320L960 320L960 64L896 64M1088 64L1088 128L1216 128L1216 192L1088 192L1088 384L1280 384L1280 320L1152 320L1152 256L1280 256L1280 64L1088 64M1408 64L1408 320L1344 320L1344 384L1536 384L1536 320L1472 320L1472 64L1408 64M1600 64L1600 384L1792 384L1792 256L1728 256L1728 320L1664 320L1664 256L1728 256L1728 192L1664 192L1664 64L1600 64M1856 64L1856 384L1920 384L1920 128L1984 128L1984 384L2048 384L2048 64L1856 64M2112 64L2112 384L2304 384L2304 320L2176 320L2176 128L2304 128L2304 64L2112 64M2432 64L2432 320L2368 320L2368 384L2560 384L2560 320L2496 320L2496 64L2432 64M2752 64L2752 384L2944 384L2944 320L2816 320L2816 128L2944 128L2944 64L2752 64M3008 64L3008 384L3200 384L3200 64L3008 64M3264 64L3264 384L3328 384L3328 319L3360 288L3392 320L3392 384L3456 384L3456 64L3392 64L3392 256L3360 224L3328 256L3328 64L3264 64M1408 448L1408 512L1472 512L1472 448L1408 448M64 448L64 576L128 576L128 512L256 512L256 448L64 448M320 448L320 512L384 512L384 576L448 576L448 512L576 512L576 448L320 448M1344 512L1344 576L1408 576L1408 512L1344 512M1920 448L1920 576L1984 576L1984 448L1920 448M128 576L128 640L192 640L192 576L128 576M448 576L448 640L512 640L512 576L448 576M320 640L320 704L384 704L384 640L320 640M512 640L512 704L576 704L576 640L512 640M832 512L832 704L896 704L896 512L832 512M1344 640L1344 704L1408 704L1408 640L1344 640M2176 512Q2149 512 2130 530Q2112 549 2112 576L2112 640Q2112 666 2130 685Q2149 704 2176 704L2240 704Q2266 704 2285 685Q2304 666 2304 640L2272 640Q2272 653 2262 662Q2253 672 2240 672L2176 672Q2162 672 2153 662Q2144 653 2144 640L2144 576Q2144 562 2153 553Q2162 544 2176 544L2240 544Q2253 544 2262 553Q2272 562 2272 576L2304 576Q2304 549 2285 530Q2266 512 2240 512L2176 512M2304 480Q2317 480 2326 489Q2336 498 2336 512L2336 704Q2336 717 2326 726Q2317 736 2304 736L2112 736Q2098 736 2089 726Q2080 717 2080 704L2080 512Q2080 498 2089 489Q2098 480 2112 480L2304 480M192 640L192 704L64 704L64 768L256 768L256 640L192 640M384 704L384 768L512 768L512 704L384 704M640 448L640 768L832 768L832 704L704 704L704 512L832 512L832 448L640 448M960 448L960 768L1152 768L1152 704L1024 704L1024 640L1088 640L1088 576L1024 576L1024 512L1152 512L1152 448L960 448M1216 448L1216 768L1280 768L1280 640L1344 640L1344 576L1280 576L1280 448L1216 448M1408 704L1408 768L1472 768L1472 704L1408 704M1536 448L1536 768L1728 768L1728 704L1600 704L1600 640L1664 640L1664 576L1600 576L1600 512L1728 512L1728 448L1536 448M1792 448L1792 768L1984 768L1984 640L1920 640L1920 704L1856 704L1856 640L1920 640L1920 576L1856 576L1856 448L1792 448M2112 448Q2085 448 2066 466Q2048 485 2048 512L2048 704Q2048 730 2066 749Q2085 768 2112 768L2304 768Q2330 768 2349 749Q2368 730 2368 704L2368 512Q2368 485 2349 466Q2330 448 2304 448L2112 448Z"  horiz-adv-x="3520" vert-adv-y="1024"  />

      
      <glyph glyph-name="uni0401" unicode="&#x0401;" d="M64 64L64 256L192 256L192 64L64 64M704 64L704 192L768 192L768 320L960 320L960 64L704 64M224 64L224 288L64 288L64 704L256 704L192 736L64 736L64 1088L256 1088L320 1056L384 1088L960 1088L960 832L384 832L384 704L640 704L640 576L672 512L672 704L960 704L960 448L384 448L384 320L736 320L736 224L672 224L672 64L224 64M320 1152L320 1280L448 1280L448 1152L320 1152M576 1152L576 1280L704 1280L704 1152L576 1152Z"  horiz-adv-x="1024" vert-adv-y="1024"  />

      
      <glyph glyph-name="uni0406" unicode="&#x0406;" d="M64 64L64 1088L384 1088L384 832L256 832L320 800L384 800L384 64L192 64L160 128L160 64L64 64Z"  horiz-adv-x="448" vert-adv-y="1024"  />

      
      <glyph glyph-name="uni0410" unicode="&#x0410;" d="M576 64L576 320L736 320L768 288L960 288L960 64L576 64M640 448L640 640L576 640L576 704L704 704L704 832L576 832L576 704L448 704L448 832L320 832L320 704L448 704L448 640L384 640L384 448L448 448L448 512L576 512L576 448L640 448M64 64L64 1088L960 1088L960 320L736 320L704 352L576 352L576 384L448 384L448 64L320 64L288 128L256 64L64 64Z"  horiz-adv-x="1024" vert-adv-y="1024"  />

      
      <glyph glyph-name="uni0411" unicode="&#x0411;" d="M576 288L576 320L640 320L576 352L576 480L448 480L448 288L576 288M64 64L64 1088L448 1088L448 1087L480 1056L512 1088L960 1088L960 832L448 832L448 736L384 704L448 704L448 672L960 672L960 576L832 576L768 544L960 544L960 64L768 64L704 96L640 64L320 64L320 128L288 192L288 64L64 64Z"  horiz-adv-x="1024" vert-adv-y="1024"  />

      
      <glyph glyph-name="uni0412" unicode="&#x0412;" d="M576 288L576 320L640 320L576 352L576 480L448 480L448 288L576 288M576 672L576 864L448 864L448 736L384 704L448 704L448 672L576 672M64 64L64 1088L960 1088L960 640L832 640L832 512L960 512L960 64L768 64L704 96L640 64L320 64L320 128L288 192L288 64L64 64Z"  horiz-adv-x="1024" vert-adv-y="1024"  />

      
      <glyph glyph-name="uni0413" unicode="&#x0413;" d="M64 64L64 416L128 384L160 320L160 384L128 416L64 448L64 1088L576 1088L576 1024L544 960L544 896L512 832L448 832L448 64L64 64M576 768L576 832L544 832L576 896L576 992L608 1024L608 1088L960 1088L960 768L576 768Z"  horiz-adv-x="1024" vert-adv-y="1024"  />

      
      <glyph glyph-name="uni0414" unicode="&#x0414;" d="M480 320L480 384L576 384L576 832L448 832L448 384L480 320L480 320M64 832L64 1088L256 1088L256 832L64 832M64 64L64 800L288 800L288 1088L896 1088L896 832L960 832L960 320L896 320L896 256L768 256L704 224L896 224L896 64L64 64Z"  horiz-adv-x="1024" vert-adv-y="1024"  />

      
      <glyph glyph-name="uni0415" unicode="&#x0415;" d="M64 64L64 256L192 256L192 64L64 64M704 64L704 192L768 192L768 320L960 320L960 64L704 64M224 64L224 288L64 288L64 704L256 704L192 736L64 736L64 1088L256 1088L320 1056L384 1088L960 1088L960 832L384 832L384 704L640 704L640 576L672 512L672 704L960 704L960 448L384 448L384 320L736 320L736 224L672 224L672 64L224 64Z"  horiz-adv-x="1024" vert-adv-y="1024"  />

      
      <glyph glyph-name="uni0416" unicode="&#x0416;" d="M832 64L832 288L1152 288L1152 64L832 64M832 320L832 544L960 544L960 448L1152 448L1152 320L832 320M64 64L64 448L256 448L256 544L384 544L384 608L256 608L256 704L64 704L64 928L128 928L64 960L64 1088L384 1088L384 736L512 736L512 1088L704 1088L704 736L832 736L832 1088L960 1088L1024 1056L1088 1088L1152 1088L1152 704L960 704L960 608L832 608L832 576L800 576L800 416L576 416L640 384L704 384L704 64L512 64L512 416L384 416L384 64L256 64L256 128L224 192L224 64L64 64Z"  horiz-adv-x="1216" vert-adv-y="1024"  />

      
      <glyph glyph-name="uni0417" unicode="&#x0417;" d="M64 64L64 448L448 448L448 256L576 256L576 512L448 512L448 640L576 640L576 896L448 896L448 704L64 704L64 1088L704 1088L704 896L736 960L736 1088L960 1088L960 640L832 640L832 512L960 512L960 224L896 224L832 256L768 224L832 224L896 192L960 192L960 64L256 64L224 128L192 64L64 64Z"  horiz-adv-x="1024" vert-adv-y="1024"  />

      
      <glyph glyph-name="uni0418" unicode="&#x0418;" d="M64 64L64 352L384 352L384 64L192 64L192 128L160 192L160 64L64 64M640 64L640 352L832 352L832 64L640 64M864 64L864 384L640 384L640 512L512 512L512 384L64 384L64 1088L384 1088L384 864L320 864L256 832L384 832L384 640L512 640L512 768L640 768L640 832L704 832L768 800L960 800L960 64L864 64M768 832L704 864L640 864L640 1088L960 1088L960 832L768 832Z"  horiz-adv-x="1024" vert-adv-y="1024"  />

      
      <glyph glyph-name="uni0419" unicode="&#x0419;" d="M192 64L192 352L384 352L384 64L192 64M64 64L64 1088L384 1088L384 640L512 640L512 768L640 768L640 832L704 832L768 800L960 800L960 64L640 64L640 512L512 512L512 384L160 384L160 64L64 64M768 832L704 864L640 864L640 1088L960 1088L960 832L768 832M320 1216L320 1344L448 1344L448 1280L576 1280L576 1344L704 1344L704 1216L320 1216Z"  horiz-adv-x="1024" vert-adv-y="1024"  />

      
      <glyph glyph-name="uni041A" unicode="&#x041A;" d="M64 64L64 288L224 288L224 448L448 448L448 64L64 64M576 64L576 512L448 512L448 480L192 480L192 320L64 320L64 1088L192 1088L192 1024L224 960L224 1088L448 1088L448 640L576 640L576 1088L960 1088L960 640L832 640L832 448L960 448L960 64L832 64L800 128L768 64L576 64Z"  horiz-adv-x="1024" vert-adv-y="1024"  />

      
      <glyph glyph-name="uni041B" unicode="&#x041B;" d="M512 64L512 448L640 448L640 320L576 320L576 288L832 288L832 64L512 64M64 64L64 384L192 384L192 640L384 640L384 832L512 832L512 1088L672 1088L704 1056L736 1088L832 1088L832 320L672 320L672 480L512 480L512 576L384 576L384 384L256 384L256 64L64 64Z"  horiz-adv-x="896" vert-adv-y="1024"  />

      
      <glyph glyph-name="uni041C" unicode="&#x041C;" d="M192 256L192 352L384 352L384 256L192 256M64 64L64 448L160 448L160 224L384 224L384 64L64 64M832 64L832 576L704 576L704 384L512 384L512 576L384 576L384 384L192 384L192 480L64 480L64 832L160 832L160 864L64 864L64 1088L384 1088L384 864L224 864L224 832L512 832L512 640L704 640L704 672L800 672L800 704L704 704L704 832L960 832L960 704L864 704L864 672L1152 672L1152 64L832 64M992 704L992 864L832 864L832 1088L1152 1088L1152 704L992 704Z"  horiz-adv-x="1216" vert-adv-y="1024"  />

      
      <glyph glyph-name="uni041D" unicode="&#x041D;" d="M64 64L64 1088L448 1088L448 704L256 704L320 672L576 672L576 1088L960 1088L960 832L832 832L896 800L960 800L960 288L896 256L960 256L960 64L576 64L576 480L448 480L448 64L256 64L256 128L224 192L224 64L64 64Z"  horiz-adv-x="1024" vert-adv-y="1024"  />

      
      <glyph glyph-name="uni041E" unicode="&#x041E;" d="M576 320L576 608L704 608L640 640L576 640L576 832L448 832L448 352L384 320L576 320M64 64L64 448L320 448L256 480L64 480L64 1088L960 1088L960 64L64 64Z"  horiz-adv-x="1024" vert-adv-y="1024"  />

      
      <glyph glyph-name="uni041F" unicode="&#x041F;" d="M800 64L800 128L832 192L832 288L960 288L960 64L800 64M64 64L64 672L448 672L448 64L64 64M576 64L576 832L448 832L448 704L64 704L64 1088L288 1088L288 960L320 1024L320 1088L960 1088L960 320L800 320L800 192L768 128L768 64L576 64Z"  horiz-adv-x="1024" vert-adv-y="1024"  />

      
      <glyph glyph-name="uni0420" unicode="&#x0420;" d="M480 512L480 672L576 672L576 832L448 832L448 576L480 512L480 512M64 64L64 224L192 224L128 256L64 256L64 1088L960 1088L960 448L896 448L864 512L864 448L448 448L448 64L64 64Z"  horiz-adv-x="1024" vert-adv-y="1024"  />

      
      <glyph glyph-name="uni0421" unicode="&#x0421;" d="M64 64L64 512L128 512L64 544L64 1088L960 1088L960 832L448 832L448 736L256 736L192 704L448 704L448 320L960 320L960 64L832 64L800 128L800 64L320 64L256 96L192 64L64 64Z"  horiz-adv-x="1024" vert-adv-y="1024"  />

      
      <glyph glyph-name="uni0422" unicode="&#x0422;" d="M320 64L320 288L512 288L544 320L704 320L704 64L320 64M320 320L320 832L288 832L288 896L256 832L64 832L64 1088L768 1088L768 960L736 896L736 832L704 832L704 352L576 352L544 320L320 320M768 832L768 960L800 1024L800 1088L960 1088L960 832L768 832Z"  horiz-adv-x="1024" vert-adv-y="1024"  />

      
      <glyph glyph-name="uni0423" unicode="&#x0423;" d="M64 64L64 320L640 320L640 448L64 448L64 640L288 640L288 512L320 576L320 672L64 672L64 1088L448 1088L448 640L576 640L576 1088L736 1088L768 1056L800 1088L960 1088L960 64L608 64L576 96L544 64L64 64Z"  horiz-adv-x="1024" vert-adv-y="1024"  />

      
      <glyph glyph-name="uni0424" unicode="&#x0424;" d="M672 64L672 192L768 192L768 64L672 64M896 448L896 896L768 896L704 864L768 864L768 448L896 448M448 64L448 256L288 256L256 288L224 256L64 256L64 832L128 832L192 864L320 864L320 448L576 448L512 480L448 480L448 896L192 896L128 864L64 864L64 1088L320 1088L352 1024L384 1088L1152 1088L1152 608L1024 608L1088 576L1152 576L1152 256L768 256L768 224L640 224L640 64L448 64Z"  horiz-adv-x="1216" vert-adv-y="1024"  />

      
      <glyph glyph-name="uni0425" unicode="&#x0425;" d="M64 64L64 512L192 512L192 640L64 640L64 1088L448 1088L448 672L576 672L576 1088L960 1088L960 864L896 832L960 832L960 640L832 640L832 512L960 512L960 64L576 64L576 480L384 480L320 448L448 448L448 64L256 64L256 256L224 192L224 64L64 64Z"  horiz-adv-x="1024" vert-adv-y="1024"  />

      
      <glyph glyph-name="uni0426" unicode="&#x0426;" d="M960-128L960 64L288 64L288 256L576 256L576 384L800 384L800 256L1152 256L1152-128L960-128M64 64L64 320L96 384L64 448L64 768L448 768L448 288L256 288L256 64L64 64M64 800L64 1088L448 1088L448 800L64 800M832 288L832 416L576 416L576 1088L960 1088L960 672L896 672L960 640L960 288L832 288Z"  horiz-adv-x="1216" vert-adv-y="1024"  />

      
      <glyph glyph-name="uni0427" unicode="&#x0427;" d="M800 64L800 224L960 224L960 64L800 64M576 64L576 448L416 448L384 512L384 448L64 448L64 800L128 800L64 832L64 1088L448 1088L448 672L384 672L448 640L576 640L576 1088L960 1088L960 768L959 768L928 736L960 704L960 256L768 256L768 64L576 64Z"  horiz-adv-x="1024" vert-adv-y="1024"  />

      
      <glyph glyph-name="uni0428" unicode="&#x0428;" d="M352 64L352 256L672 256L672 64L352 64M64 64L64 672L128 672L192 704L64 704L64 1088L384 1088L384 288L320 288L320 64L64 64M704 64L704 288L512 288L512 1088L576 1088L576 1087L608 1056L640 1088L832 1088L832 256L960 256L960 864L1024 864L1088 832L1216 832L1152 864L1088 864L1024 896L960 896L960 1088L1280 1088L1280 64L704 64Z"  horiz-adv-x="1344" vert-adv-y="1024"  />

      
      <glyph glyph-name="uni0429" unicode="&#x0429;" d="M1280-128L1280 64L64 64L64 288L192 288L256 256L512 256L512 512L640 512L640 352L832 352L832 256L1472 256L1472-128L1280-128M256 288L192 320L64 320L64 1088L384 1088L384 288L256 288M672 384L672 512L768 512L704 544L512 544L512 1088L832 1088L832 384L672 384M960 288L960 1088L1280 1088L1280 288L960 288Z"  horiz-adv-x="1536" vert-adv-y="1024"  />

      
      <glyph glyph-name="uni042A" unicode="&#x042A;" d="M736 128L768 192L768 512L640 512L640 256L736 256L736 128L736 128M256 64L256 672L448 672L512 704L640 704L640 640L960 640L992 576L1024 640L1152 640L1152 64L448 64L416 128L384 64L256 64M256 704L256 960L224 896L64 896L64 1088L640 1088L640 736L512 736L448 704L256 704Z"  horiz-adv-x="1216" vert-adv-y="1024"  />

      
      <glyph glyph-name="uni042B" unicode="&#x042B;" d="M576 256L576 512L448 512L448 288L384 288L448 256L576 256M800 544L800 640L960 640L960 544L800 544M64 64L64 640L128 640L64 672L64 1088L448 1088L448 672L384 672L448 640L768 640L768 448L800 512L960 512L960 64L800 64L800 256L640 256L576 224L768 224L768 64L64 64M1088 64L1088 512L1344 512L1280 544L1088 544L1088 1088L1408 1088L1408 64L1280 64L1216 96L1152 64L1088 64Z"  horiz-adv-x="1472" vert-adv-y="1024"  />

      
      <glyph glyph-name="uni042C" unicode="&#x042C;" d="M480 64L480 256L640 256L576 288L576 512L480 512L480 640L960 640L960 64L480 64M64 64L64 1088L192 1088L192 896L224 832L224 1088L448 1088L448 832L416 768L448 704L448 288L192 288L256 256L448 256L448 64L64 64Z"  horiz-adv-x="1024" vert-adv-y="1024"  />

      
      <glyph glyph-name="uni042D" unicode="&#x042D;" d="M64 64L64 448L448 448L448 256L576 256L576 512L448 512L448 640L544 640L544 576L576 640L576 896L448 896L448 704L64 704L64 832L96 896L64 960L64 1088L704 1088L704 1087L736 1056L768 1088L960 1088L960 64L800 64L800 256L768 192L768 64L288 64L288 128L256 64L64 64Z"  horiz-adv-x="1024" vert-adv-y="1024"  />

      
      <glyph glyph-name="uni042E" unicode="&#x042E;" d="M1024 320L1024 608L1152 608L1088 640L1024 640L1024 832L896 832L896 352L832 320L1024 320M64 64L64 1088L384 1088L384 832L256 832L320 800L384 800L384 704L512 704L512 1088L1408 1088L1408 64L736 64L736 192L704 128L704 64L512 64L512 448L384 448L384 64L192 64L192 128L160 192L160 64L64 64Z"  horiz-adv-x="1472" vert-adv-y="1024"  />

      
      <glyph glyph-name="uni042F" unicode="&#x042F;" d="M672 64L672 128L704 192L704 320L960 320L960 64L672 64M576 672L576 832L448 832L448 672L576 672M64 64L64 576L320 576L256 608L256 640L64 640L64 1088L832 1088L832 1024L864 960L864 832L704 832L704 800L960 800L960 352L672 352L672 192L640 128L640 64L576 64L576 448L448 448L448 288L384 288L320 256L448 256L448 64L288 64L288 192L256 128L256 64L64 64M960 800L896 832L896 960L864 1024L864 1088L960 1088L960 800L960 800Z"  horiz-adv-x="1024" vert-adv-y="1024"  />

      
      <glyph glyph-name="uni0430" unicode="&#x0430;" d="M640 448L640 640L576 640L576 704L704 704L704 832L576 832L576 704L448 704L448 832L320 832L320 704L448 704L448 640L384 640L384 448L448 448L448 512L576 512L576 448L640 448M64 64L64 1088L960 1088L960 64L576 64L576 384L448 384L448 64L64 64Z"  horiz-adv-x="1024" vert-adv-y="1024"  />

      
      <glyph glyph-name="uni0431" unicode="&#x0431;" d="M576 288L576 480L448 480L448 288L576 288M64 64L64 1088L960 1088L960 832L448 832L448 672L960 672L960 64L64 64Z"  horiz-adv-x="1024" vert-adv-y="1024"  />

      
      <glyph glyph-name="uni0432" unicode="&#x0432;" d="M576 288L576 480L448 480L448 288L576 288M576 672L576 864L448 864L448 672L576 672M64 64L64 1088L960 1088L960 640L832 640L832 512L960 512L960 64L64 64Z"  horiz-adv-x="1024" vert-adv-y="1024"  />

      
      <glyph glyph-name="uni0433" unicode="&#x0433;" d="M64 64L64 1088L960 1088L960 768L576 768L576 832L448 832L448 64L64 64Z"  horiz-adv-x="1024" vert-adv-y="1024"  />

      
      <glyph glyph-name="uni0434" unicode="&#x0434;" d="M576 384L576 832L448 832L448 384L576 384M64 64L64 1088L896 1088L896 832L960 832L960 320L896 320L896 64L64 64Z"  horiz-adv-x="1024" vert-adv-y="1024"  />

      
      <glyph glyph-name="uni0435" unicode="&#x0435;" d="M64 64L64 1088L960 1088L960 832L384 832L384 704L960 704L960 448L384 448L384 320L960 320L960 64L64 64Z"  horiz-adv-x="1024" vert-adv-y="1024"  />

      
      <glyph glyph-name="uni0436" unicode="&#x0436;" d="M64 64L64 448L256 448L256 544L384 544L384 608L256 608L256 704L64 704L64 1088L384 1088L384 736L512 736L512 1088L704 1088L704 736L832 736L832 1088L1152 1088L1152 704L960 704L960 608L832 608L832 544L960 544L960 448L1152 448L1152 64L832 64L832 416L704 416L704 64L512 64L512 416L384 416L384 64L64 64Z"  horiz-adv-x="1216" vert-adv-y="1024"  />

      
      <glyph glyph-name="uni0437" unicode="&#x0437;" d="M64 64L64 448L448 448L448 256L576 256L576 512L448 512L448 640L576 640L576 896L448 896L448 704L64 704L64 1088L960 1088L960 640L832 640L832 512L960 512L960 64L64 64Z"  horiz-adv-x="1024" vert-adv-y="1024"  />

      
      <glyph glyph-name="uni0438" unicode="&#x0438;" d="M64 64L64 1088L384 1088L384 640L512 640L512 768L640 768L640 1088L960 1088L960 64L640 64L640 512L512 512L512 384L384 384L384 64L64 64Z"  horiz-adv-x="1024" vert-adv-y="1024"  />

      
      <glyph glyph-name="uni0439" unicode="&#x0439;" d="M64 64L64 1088L384 1088L384 640L512 640L512 768L640 768L640 1088L960 1088L960 64L640 64L640 512L512 512L512 384L384 384L384 64L64 64M320 1216L320 1344L448 1344L448 1280L576 1280L576 1344L704 1344L704 1216L320 1216Z"  horiz-adv-x="1024" vert-adv-y="1024"  />

      
      <glyph glyph-name="uni043A" unicode="&#x043A;" d="M64 64L64 1088L448 1088L448 640L576 640L576 1088L960 1088L960 640L832 640L832 448L960 448L960 64L576 64L576 512L448 512L448 64L64 64Z"  horiz-adv-x="1024" vert-adv-y="1024"  />

      
      <glyph glyph-name="uni043B" unicode="&#x043B;" d="M64 64L64 384L192 384L192 640L384 640L384 832L512 832L512 1088L832 1088L832 64L512 64L512 576L384 576L384 384L256 384L256 64L64 64Z"  horiz-adv-x="896" vert-adv-y="1024"  />

      
      <glyph glyph-name="uni043C" unicode="&#x043C;" d="M64 64L64 1088L384 1088L384 832L512 832L512 640L704 640L704 832L832 832L832 1088L1152 1088L1152 64L832 64L832 576L704 576L704 384L512 384L512 576L384 576L384 64L64 64Z"  horiz-adv-x="1216" vert-adv-y="1024"  />

      
      <glyph glyph-name="uni043D" unicode="&#x043D;" d="M64 64L64 1088L448 1088L448 672L576 672L576 1088L960 1088L960 64L576 64L576 480L448 480L448 64L64 64Z"  horiz-adv-x="1024" vert-adv-y="1024"  />

      
      <glyph glyph-name="uni043E" unicode="&#x043E;" d="M576 320L576 832L448 832L448 320L576 320M64 64L64 1088L960 1088L960 64L64 64Z"  horiz-adv-x="1024" vert-adv-y="1024"  />

      
      <glyph glyph-name="uni043F" unicode="&#x043F;" d="M64 64L64 1088L960 1088L960 64L576 64L576 832L448 832L448 64L64 64Z"  horiz-adv-x="1024" vert-adv-y="1024"  />

      
      <glyph glyph-name="uni0440" unicode="&#x0440;" d="M576 672L576 832L448 832L448 672L576 672M64 64L64 1088L960 1088L960 448L448 448L448 64L64 64Z"  horiz-adv-x="1024" vert-adv-y="1024"  />

      
      <glyph glyph-name="uni0441" unicode="&#x0441;" d="M64 64L64 1088L960 1088L960 832L448 832L448 320L960 320L960 64L64 64Z"  horiz-adv-x="1024" vert-adv-y="1024"  />

      
      <glyph glyph-name="uni0442" unicode="&#x0442;" d="M320 64L320 832L64 832L64 1088L960 1088L960 832L704 832L704 64L320 64Z"  horiz-adv-x="1024" vert-adv-y="1024"  />

      
      <glyph glyph-name="uni0443" unicode="&#x0443;" d="M64 64L64 320L640 320L640 448L64 448L64 1088L448 1088L448 640L576 640L576 1088L960 1088L960 64L64 64Z"  horiz-adv-x="1024" vert-adv-y="1024"  />

      
      <glyph glyph-name="uni0444" unicode="&#x0444;" d="M448 448L448 896L320 896L320 448L448 448M896 448L896 896L768 896L768 448L896 448M448 64L448 256L64 256L64 1088L1152 1088L1152 256L768 256L768 64L448 64Z"  horiz-adv-x="1216" vert-adv-y="1024"  />

      
      <glyph glyph-name="uni0445" unicode="&#x0445;" d="M64 64L64 512L192 512L192 640L64 640L64 1088L448 1088L448 672L576 672L576 1088L960 1088L960 640L832 640L832 512L960 512L960 64L576 64L576 480L448 480L448 64L64 64Z"  horiz-adv-x="1024" vert-adv-y="1024"  />

      
      <glyph glyph-name="uni0446" unicode="&#x0446;" d="M960-128L960 64L64 64L64 1088L448 1088L448 256L576 256L576 1088L960 1088L960 256L1152 256L1152-128L960-128Z"  horiz-adv-x="1216" vert-adv-y="1024"  />

      
      <glyph glyph-name="uni0447" unicode="&#x0447;" d="M576 64L576 448L64 448L64 1088L448 1088L448 640L576 640L576 1088L960 1088L960 64L576 64Z"  horiz-adv-x="1024" vert-adv-y="1024"  />

      
      <glyph glyph-name="uni0448" unicode="&#x0448;" d="M64 64L64 1088L384 1088L384 256L512 256L512 1088L832 1088L832 256L960 256L960 1088L1280 1088L1280 64L64 64Z"  horiz-adv-x="1344" vert-adv-y="1024"  />

      
      <glyph glyph-name="uni0449" unicode="&#x0449;" d="M1280-128L1280 64L64 64L64 1088L384 1088L384 256L512 256L512 1088L832 1088L832 256L960 256L960 1088L1280 1088L1280 256L1472 256L1472-128L1280-128Z"  horiz-adv-x="1536" vert-adv-y="1024"  />

      
      <glyph glyph-name="uni044A" unicode="&#x044A;" d="M768 256L768 512L640 512L640 256L768 256M256 64L256 896L64 896L64 1088L640 1088L640 640L1152 640L1152 64L256 64Z"  horiz-adv-x="1216" vert-adv-y="1024"  />

      
      <glyph glyph-name="uni044B" unicode="&#x044B;" d="M576 256L576 512L448 512L448 256L576 256M64 64L64 1088L448 1088L448 640L960 640L960 64L64 64M1088 64L1088 1088L1408 1088L1408 64L1088 64Z"  horiz-adv-x="1472" vert-adv-y="1024"  />

      
      <glyph glyph-name="uni044C" unicode="&#x044C;" d="M576 256L576 512L448 512L448 256L576 256M64 64L64 1088L448 1088L448 640L960 640L960 64L64 64Z"  horiz-adv-x="1024" vert-adv-y="1024"  />

      
      <glyph glyph-name="uni044D" unicode="&#x044D;" d="M64 64L64 448L448 448L448 256L576 256L576 512L448 512L448 640L576 640L576 896L448 896L448 704L64 704L64 1088L960 1088L960 64L64 64Z"  horiz-adv-x="1024" vert-adv-y="1024"  />

      
      <glyph glyph-name="uni044E" unicode="&#x044E;" d="M1024 320L1024 832L896 832L896 320L1024 320M64 64L64 1088L384 1088L384 704L512 704L512 1088L1408 1088L1408 64L512 64L512 448L384 448L384 64L64 64Z"  horiz-adv-x="1472" vert-adv-y="1024"  />

      
      <glyph glyph-name="uni044F" unicode="&#x044F;" d="M576 672L576 832L448 832L448 672L576 672M64 64L64 576L256 576L256 640L64 640L64 1088L960 1088L960 64L576 64L576 448L448 448L448 64L64 64Z"  horiz-adv-x="1024" vert-adv-y="1024"  />

      
      <glyph glyph-name="uni0451" unicode="&#x0451;" d="M64 64L64 1088L960 1088L960 832L384 832L384 704L960 704L960 448L384 448L384 320L960 320L960 64L64 64M320 1152L320 1280L448 1280L448 1152L320 1152M576 1152L576 1280L704 1280L704 1152L576 1152Z"  horiz-adv-x="1024" vert-adv-y="1024"  />

      
      <glyph glyph-name="uni2018" unicode="&#x2018;" d="M64 832L64 1024L128 1024L128 960L192 960L192 832L64 832Z"  horiz-adv-x="256" vert-adv-y="1024"  />

      
      <glyph glyph-name="uni2019" unicode="&#x2019;" d="M128 832L128 896L64 896L64 1024L192 1024L192 832L128 832Z"  horiz-adv-x="256" vert-adv-y="1024"  />

      
      <glyph glyph-name="uni201C" unicode="&#x201C;" d="M64 832L64 1024L128 1024L128 960L192 960L192 832L64 832M256 832L256 1024L320 1024L320 960L384 960L384 832L256 832Z"  horiz-adv-x="448" vert-adv-y="1024"  />

      
      <glyph glyph-name="uni201D" unicode="&#x201D;" d="M128 832L128 896L64 896L64 1024L192 1024L192 832L128 832M320 832L320 896L256 896L256 1024L384 1024L384 832L320 832Z"  horiz-adv-x="448" vert-adv-y="1024"  />

      

  </font>
</defs>
</svg>
